# xmcd
#
# Track frame offsets:
#	150
#	16916
#	31648
#	55606
#	81020
#	101951
#	118929
#	133208
#	166257
#	190257
#
# Disc length: 2700 seconds
#
# Revision: 0
# Processed by: cddbd v1.4PL0 Copyright (c) Steve Scherf et al.
# Submitted via: audiograbber 1.82.02
#
DISCID=7c0a8a0a
DTITLE=Barry and Terri Collecutt - God Gave The Cross
DYEAR=1900
DGENRE=
TTITLE0=God Gave The Cross
TTITLE1=You are Mine
TTITLE2=Make Me Holy
TTITLE3=Show me Your Glory
TTITLE4=How You Love Me
TTITLE5=Trust in You
TTITLE6=Renown
TTITLE7=Sacrifice
TTITLE8=Build a Throne
TTITLE9=Fathers Love
EXTD=
EXTT0=
EXTT1=
EXTT2=
EXTT3=
EXTT4=
EXTT5=
EXTT6=
EXTT7=
EXTT8=
EXTT9=
PLAYORDER=
